# xmcd
#
# Track frame offsets:
#	150
#	16845
#	39832
#	59845
#	77197
#	92191
#
# Disc length: 1447 seconds
#
# Revision: 0
# Processed by: cddbd v1.5.2PL0 Copyright (c) Steve Scherf et al.
# Submitted via: dBpowerAMP V4.0
#
DISCID=4405a506
DTITLE=Urban Preacher - Urban Preacher EP
DYEAR=2009
DGENRE=Blues
TTITLE0=On The Rooftop
TTITLE1=Vintage Girl
TTITLE2=Strange Obsession
TTITLE3=Moanin' The Blues
TTITLE4=Lady Luck
TTITLE5=It's A Living
EXTD=
EXTT0=
EXTT1=
EXTT2=
EXTT3=
EXTT4=
EXTT5=
PLAYORDER=
